<svg width="126" height="31" fill="none" xmlns="http://www.w3.org/2000/svg"><path d="M18.059 18.672H7.004V30H.148V1.562h19.024v5.293H7.004v6.543h11.055v5.274zM30.96 30c-.234-.43-.443-1.061-.625-1.895-1.211 1.524-2.904 2.286-5.078 2.286-1.992 0-3.685-.6-5.078-1.797-1.393-1.211-2.09-2.728-2.09-4.551 0-2.292.846-4.023 2.539-5.195 1.693-1.172 4.154-1.758 7.383-1.758h2.031v-1.113c0-1.94-.84-2.91-2.52-2.91-1.562 0-2.343.768-2.343 2.304h-6.582c0-2.044.866-3.704 2.597-4.98 1.745-1.276 3.965-1.914 6.66-1.914 2.696 0 4.825.657 6.387 1.972 1.563 1.315 2.364 3.119 2.403 5.41v9.356c.026 1.94.325 3.424.898 4.453V30h-6.582zm-4.121-4.297c.82 0 1.497-.176 2.031-.527.547-.352.938-.749 1.172-1.192v-3.379h-1.914c-2.292 0-3.438 1.03-3.438 3.086 0 .6.202 1.088.606 1.465.404.365.918.547 1.543.547zm22.531-1.64c0-.56-.293-1.01-.879-1.348-.586-.339-1.699-.69-3.34-1.055-1.64-.364-2.994-.84-4.062-1.426-1.068-.599-1.882-1.321-2.442-2.168-.56-.846-.84-1.816-.84-2.91 0-1.94.801-3.535 2.403-4.785 1.602-1.263 3.698-1.894 6.289-1.894 2.786 0 5.026.631 6.719 1.894 1.692 1.263 2.539 2.923 2.539 4.98h-6.602c0-1.692-.892-2.539-2.675-2.539-.69 0-1.27.196-1.739.586-.469.378-.703.853-.703 1.426 0 .586.286 1.061.86 1.426.572.365 1.484.664 2.734.898 1.263.235 2.37.515 3.32.84 3.177 1.094 4.766 3.054 4.766 5.88 0 1.926-.86 3.495-2.578 4.706-1.706 1.211-3.92 1.817-6.641 1.817-1.81 0-3.425-.326-4.844-.977-1.419-.651-2.526-1.536-3.32-2.656s-1.191-2.298-1.191-3.535h6.152c.026.976.351 1.692.976 2.148.625.443 1.426.664 2.403.664.898 0 1.569-.182 2.011-.547a1.74 1.74 0 0 0 .684-1.425zm13.879-12.93c1.406-1.771 3.203-2.656 5.39-2.656 2.331 0 4.09.69 5.274 2.07 1.185 1.38 1.79 3.418 1.817 6.113V30h-6.602V16.816c0-1.12-.228-1.94-.684-2.46-.455-.534-1.23-.801-2.324-.801-1.354 0-2.311.43-2.871 1.289V30h-6.582V0h6.582v11.133zM84.336 30h-6.602V8.867h6.602V30zM77.344 3.418c0-.938.338-1.706 1.015-2.305.678-.599 1.556-.898 2.637-.898 1.08 0 1.96.3 2.637.898.677.6 1.015 1.367 1.015 2.305 0 .937-.338 1.706-1.015 2.305-.677.599-1.556.898-2.637.898-1.08 0-1.96-.3-2.637-.898-.677-.6-1.015-1.368-1.015-2.305z" fill="#393939"/><path d="M85.578 19.238c0-2.11.41-3.984 1.23-5.625.82-1.653 2-2.923 3.536-3.808 1.536-.886 3.34-1.328 5.41-1.328 3.164 0 5.657.983 7.48 2.949 1.823 1.953 2.735 4.616 2.735 7.988v.234c0 3.295-.918 5.912-2.754 7.852-1.823 1.927-4.297 2.89-7.422 2.89-3.008 0-5.423-.898-7.246-2.695-1.823-1.81-2.806-4.258-2.95-7.343l-.019-1.114zm6.582.41c0 1.954.306 3.386.918 4.297.612.912 1.517 1.367 2.715 1.367 2.344 0 3.542-1.803 3.594-5.41v-.664c0-3.789-1.211-5.683-3.633-5.683-2.2 0-3.392 1.634-3.574 4.902l-.02 1.191zm20.754-10.78l.215 2.48c1.458-1.914 3.47-2.871 6.035-2.871 2.201 0 3.841.657 4.922 1.972 1.094 1.315 1.66 3.294 1.699 5.938V30h-6.601V16.66c0-1.068-.215-1.849-.645-2.344-.43-.507-1.211-.761-2.344-.761-1.289 0-2.246.508-2.871 1.523V30h-6.582V8.867h6.172z" fill="#E45446"/></svg>